<svg id="Capa_1" enable-background="new 0 0 510 510" height="512" viewBox="0 0 510 510" width="512" xmlns="http://www.w3.org/2000/svg"><g><path d="m438 295h-30v-104h28.255l.208 12.404 1.537 2.596z" fill="#e5eaee"/><path d="m410.25 96-164.25-74.66v-21.34h-126v8.79l-87.21 87.21h-8.79v110h96v240h126v-240h192v-110zm-290.25 80h-66v-50h66zm0-80h-44.79l44.79-44.79zm30-66h44.79l-44.79 44.79zm0 176h52.79l-52.79 52.79zm66 210-33 10.38-3.26 1.02-16.53-11.4 19.79-19.79 33-33zm0-95.21-66 66v-85.58l66-66zm0-144.79h-66v-50h66zm0-80h-44.79l11.79-11.79 33-33zm96 80h-66v-50h66zm-66-80v-41.71l91.75 41.71zm162 80h-66v-50h66z" fill="#e40058"/><path d="m410.25 96-164.25-74.66v-21.34h-63v30h11.79l-11.79 11.79v42.42l33-33v44.79h-33v30h33v50h-33v30h19.79l-19.79 19.79v42.42l33-33v85.58l-33 33v42.42l33-33v52.79l-33 10.38v19.62h63v-240h192v-110zm-98.25 80h-66v-50h66zm-66-80v-41.71l91.75 41.71zm162 80h-66v-50h66z" fill="#c40048"/><path d="m80 416h206v94h-206z" fill="#696e73"/><path d="m183 416h103v94h-103z" fill="#4b5055"/><path d="m455 302v-30h-64v30h17v29.175l8.563 4.068c4.518 2.147 7.437 6.761 7.437 11.757 0 7.168-5.832 13-13 13s-13-5.832-13-13h-30c0 23.71 19.29 43 43 43s43-19.29 43-43c0-13.089-6.058-25.386-16-33.452v-11.548z" fill="#4b5055"/><path d="m336 416h150v94h-150z" fill="#ffb454"/></g></svg>